#!OML:ASF H:\Terrain\Walking\May29\JustinRory\Justin.ASF
:FULLY-SPECIFIED
:DEGREES
1493
root 9.70845 17.7409 0.557208 -178.343 -25.4951 184.328
lowerback 8.00949 -3.58865 1.05958
upperback 0.855311 -4.70427 0.925105
thorax -3.59999 -2.36837 0.881212
lowerneck -7.94987 -8.13941 -14.4886
upperneck 10.1771 -10.5285 10.3196
head 5.69118 -5.14298 4.73015
rclavicle 3.41413e-014 -1.78906e-014
rhumerus -45.0302 -21.1925 -64.713
rradius 28.5318
rwrist -7.17059
rhand -12.0974 15.9032
rfingers 7.12502
rthumb 13.9631 -13.6079
lclavicle 3.41413e-014 -1.78906e-014
lhumerus -46.5985 29.2401 52.8273
lradius 33.0053
lwrist 0.912834
lhand -3.84212 41.0055
lfingers 7.12502
lthumb 21.9056 69.7854
rfemur -19.7557 6.60899 21.0903
rtibia 27.2237
rfoot -8.06571 -3.22895
rtoes 12.4613
lfemur -0.681923 11.7572 -4.19925
ltibia 45.8881
lfoot 11.7611 5.57043
ltoes -20.1053
1494
root 9.69654 17.7309 0.484261 -178.616 -25.2397 184.716
lowerback 7.6456 -3.52323 1.57765
upperback 1.04477 -4.59112 0.817166
thorax -3.25071 -2.32195 0.437814
lowerneck -8.11524 -8.21176 -14.3063
upperneck 10.424 -10.6712 10.4392
head 5.81073 -5.19786 4.71718
rclavicle -2.13694e-015 2.78299e-015
rhumerus -44.9452 -22.1208 -64.4557
rradius 28.3877
rwrist -6.57397
rhand -12.0995 16.5104
rfingers 7.12502
rthumb 13.9612 -13.0008
lclavicle -2.13694e-015 2.78299e-015
lhumerus -46.0261 28.794 53.1744
lradius 33.3027
lwrist 1.05165
lhand -4.43993 41.0118
lfingers 7.12502
lthumb 21.3314 69.8578
rfemur -19.3084 6.81604 21.555
rtibia 27.019
rfoot -8.32267 -2.9983
rtoes 13.7573
lfemur -1.0573 11.5106 -3.58135
ltibia 46.7645
lfoot 13.1039 3.83358
ltoes -20.5989
1495
root 9.70823 17.7913 0.38542 -178.846 -24.9297 185.02
lowerback 7.3161 -3.64575 1.47303
upperback 1.2837 -4.77879 1.02527
thorax -2.79508 -2.41796 0.694338
lowerneck -8.85431 -8.20492 -14.7117
upperneck 10.802 -10.5335 10.515
head 6.06398 -5.11887 4.79306
rclavicle 7.7526e-015 1.35174e-014
rhumerus -44.1294 -21.53 -64.8807
rradius 28.3307
rwrist -6.8481
rhand -12.3292 16.6197
rfingers 7.12502
rthumb 13.7397 -12.9067
lclavicle 7.7526e-015 1.35174e-014
lhumerus -45.8767 28.5442 53.7086
lradius 33.7139
lwrist 1.91109
lhand -4.27644 40.7519
lfingers 7.12502
lthumb 21.4885 69.58
rfemur -19.1388 9.13806 21.4091
rtibia 26.9745
rfoot -9.57202 -3.54245
rtoes 27.4423
lfemur -1.31423 11.3612 -2.91918
ltibia 47.505
lfoot 14.6691 3.02208
ltoes -18.1664
1496
root 9.7142 17.7829 0.313931 -179.49 -24.7408 185.222
lowerback 7.75654 -4.00775 1.33679
upperback 1.47797 -5.27538 1.3274
thorax -2.79834 -2.671 1.15288
lowerneck -9.70272 -8.05797 -15.426
upperneck 11.339 -10.1143 10.401
head 6.35542 -4.92684 4.88744
rclavicle -4.55217e-014 -8.34896e-015
rhumerus -43.19 -20.1906 -65.3438
rradius 28.3756
rwrist -7.46791
rhand -12.4828 16.5136
rfingers 7.12502
rthumb 13.5917 -13.0227
lclavicle -4.55217e-014 -8.34896e-015
lhumerus -46.4083 28.9807 53.8574
lradius 34.0781
lwrist 2.3311
lhand -4.03915 40.4466
lfingers 7.12502
lthumb 21.7164 69.2485
rfemur -18.1546 9.42629 21.89
rtibia 26.8746
rfoot -10.2282 -3.58511
rtoes 25.2229
lfemur -1.20806 10.7786 -2.3358
ltibia 48.363
lfoot 16.4062 3.09693
ltoes -15.0229
1497
root 9.69604 17.7406 0.276516 -179.601 -24.5182 185.412
lowerback 7.88502 -3.70724 2.19165
upperback 1.4481 -4.80684 0.820204
thorax -3.01709 -2.44278 0.124098
lowerneck -9.62023 -8.4147 -14.3889
upperneck 11.4348 -10.76 10.1842
head 6.38647 -5.21602 4.57861
rclavicle -4.80065e-014 3.37934e-014
rhumerus -44.004 -21.6147 -65.1603
rradius 28.7565
rwrist -7.61697
rhand -12.5205 16.1216
rfingers 7.12502
rthumb 13.5554 -13.4171
lclavicle -4.80065e-014 3.37934e-014
lhumerus -45.1189 27.6996 54.4091
lradius 34.02
lwrist 1.97182
lhand -4.01116 40.1868
lfingers 7.12502
lthumb 21.7432 68.9856
rfemur -17.4822 7.47247 22.7712
rtibia 26.7855
rfoot -10.2473 -2.96146
rtoes 8.13418
lfemur -1.86014 10.216 -2.0729
ltibia 49.2807
lfoot 17.9645 2.66027
ltoes -14.4838
1498
root 9.66617 17.7592 0.221232 -179.404 -24.0265 185.434
lowerback 7.66522 -3.94267 2.47185
upperback 1.15995 -5.08475 0.878435
thorax -3.21716 -2.58079 0.0566403
lowerneck -9.09842 -8.16875 -14.8665
upperneck 11.4187 -10.4201 10.0883
head 6.2696 -5.09615 4.68066
rclavicle 2.83268e-015 9.93923e-015
rhumerus -43.7944 -20.818 -65.1109
rradius 28.6629
rwrist -7.52323
rhand -12.495 15.947
rfingers 7.12502
rthumb 13.58 -13.5901
lclavicle 2.83268e-015 9.93923e-015
lhumerus -45.962 27.914 54.2479
lradius 34.4322
lwrist 1.85918
lhand -3.90901 40.1265
lfingers 7.12502
lthumb 21.8413 68.9139
rfemur -17.5186 7.41951 22.7781
rtibia 26.5044
rfoot -10.5372 -2.32439
rtoes 7.79638
lfemur -2.6534 9.98738 -2.05316
ltibia 50.2606
lfoot 19.387 1.92048
ltoes -12.2201
1499
root 9.63682 17.7978 0.137661 -179.346 -23.4488 185.6
lowerback 7.08072 -3.63278 2.95659
upperback 1.01331 -4.64774 0.535416
thorax -3.10158 -2.36524 -0.644626
lowerneck -7.89935 -8.24958 -14.1364
upperneck 11.0192 -10.7904 10.0403
head 5.9423 -5.29001 4.55303
rclavicle -1.56046e-014 -7.15625e-015
rhumerus -44.6904 -21.7921 -64.6475
rradius 28.6553
rwrist -7.20787
rhand -12.5923 16.482
rfingers 7.12502
rthumb 13.4862 -13.0613
lclavicle -1.56046e-014 -7.15625e-015
lhumerus -45.3593 26.3706 54.9144
lradius 34.7761
lwrist 2.36346
lhand -4.74132 40.8526
lfingers 7.12502
lthumb 21.0419 69.731
rfemur -17.4317 8.23059 22.7746
rtibia 26.2404
rfoot -10.9778 -1.80159
rtoes 14.8167
lfemur -3.10339 9.78454 -1.78154
ltibia 51.1165
lfoot 20.8741 1.48984
ltoes -8.31067
